<svg xmlns="http://www.w3.org/2000/svg" viewBox="0 0 100.67 112.12"><defs><style>.cls-1{fill:#2d3c58;}</style></defs><g id="Capa_2" data-name="Capa 2"><g id="Capa_1-2" data-name="Capa 1"><path class="cls-1" d="M3.38,77.49c-1.55-16.16-.84-34.42,7.7-48.81C19.53,14.45,39.51,20.36,50.21,9,52.11,7,56,1.12,51.14.1c-2.89-.62-5.58,1.78-6.33,4.36C43.25,9.8,48.35,12.84,52.76,14c8.06,2.19,16.4,2.28,24.15,5.75C96.7,28.66,99.24,57.11,97.38,75.84c-.11,1.08,2.65.56,2.74-.35,1.66-16.72.15-39.49-13-51.81-5.67-5.3-13.34-7.47-20.77-8.92C62,13.9,57.19,13.68,53,12.06c-2.53-1-5.11-2.37-5.66-5.3a6.07,6.07,0,0,1,.73-4c2.86.53,3.36,1.8,1.48,3.82C44.31,15.36,31.67,15.35,23,18.07,16.27,20.2,11,23.8,7.68,30.19,0,44.93-.92,62,.64,78.22c.09.88,2.84.29,2.74-.73Z"/><path class="cls-1" d="M61.77,20.25l6.06,2a2.92,2.92,0,0,0,2.06-.35c.3-.16,1-.65.33-.87l-6.06-2a2.92,2.92,0,0,0-2.06.35c-.3.16-1,.65-.33.87Z"/><path class="cls-1" d="M15.13,67.57C10.77,68.58,4,69.63,1.44,74c-2.68,4.65,1.12,8.32,5.29,9.85,3.38,1.25,7.19,1.16,10.72,1.41,5,.34,10,.67,14.94.93,10,.51,19.92.75,29.88.34A173.89,173.89,0,0,0,90.05,83.4c3.59-.74,8.88-1.93,9.86-6.24,1.75-7.72-13.88-9.57-18.7-9.68-1,0-2.91,1.52-1.07,1.56,4.25.09,16.46,1.39,17.15,7.15,1,8.66-32.37,8.8-38.21,8.94-11.76.28-23.51-.28-35.23-1-5.43-.35-14.5.62-18.74-3.6C-1.41,74,10.38,70.13,15.5,69c1.66-.39,1.29-1.76-.37-1.38Z"/><path class="cls-1" d="M31.17,92.75q-3.45,5.91-5.6.6L25,92c-1.53-5.88,6.67-6.17,10.2-4.13,2.66,1.53,4.2,5.73,6,8.16,4.43,6,10.44,10.66,16.33,15.2l1.47-.94c-1.87.12-18,1.87-16.7-3.33.23-1,3.54-3.74,4.23-4.48l4.95-5.21c2.37-2.51,9.52-12.46,14-9a7.06,7.06,0,0,1,2.17,5c.2,4.87-8.74,6.53-6.18,1,.23-.51-1.88-.3-2.17.33-2.67,5.75,5.27,6.87,8.52,3.79C72.28,94.2,69,85.24,62.56,86c-3,.35-4.82,2.58-6.78,4.64q-6.72,7.06-13.41,14.16c-2.33,2.46-5,5.34-.19,6.73,4.63,1.34,11.15.13,15.89-.15.21,0,2-.51,1.47-.94a122.77,122.77,0,0,1-11-9.18c-3.56-3.47-6-7.41-8.84-11.41-3.23-4.53-8.77-5.65-13.84-3.25-5.54,2.61-3,10.54,2.6,11.39,3.55.54,7.53-2.58,4.8-6-.39-.49-2.49.25-2,.8Z"/><path class="cls-1" d="M56.2,50.7a6.17,6.17,0,0,0,.31-3.36c-2.24-1.22-2.22,3.86-1.95,4.65a6,6,0,0,0,.42.93A5,5,0,0,0,56.2,50.7Z"/><path class="cls-1" d="M73,47.23c.17-2-.59-1.67-2.27,1.06l1.46,2.35.3.28A5.84,5.84,0,0,0,73,47.23Z"/><path class="cls-1" d="M15.16,49.22c2.15,1.5,4.91,3.17,7.64,3.39a11.21,11.21,0,0,0,4.85-.6,9.48,9.48,0,0,1,.14-5.59c2.25-7.05,10.4-5.15,6.5,1.9a10.82,10.82,0,0,1-3.63,3.93c2.28,5.3,8.91,6.1,12.64,1.55-3.23-3.71-4.28-9.4,1.62-10.06,3.73-.42,4,2.87,3.31,5.72a12.17,12.17,0,0,1-1.95,4.19,5.34,5.34,0,0,0,.56.41,13.09,13.09,0,0,0,5.6.21c-1.58-2.51-1.8-5.8.54-8.1,1.29-1.28,4.23-2.42,5.78-1C61,47.37,58.75,52,57,53.8a8.45,8.45,0,0,1-.81.77,8,8,0,0,0,2.68,1.72c3.29,1.3,8.95-.16,12.05-3.23a7.09,7.09,0,0,1-3.46-5.4c-.37-7.07,12.27-6.08,7.51,3.05a11.88,11.88,0,0,1-.92,1.46,9,9,0,0,0,7.6.72c-.05-2,0-3.91.07-5.65.32-4.77.33-10.72-3.92-12.9a11.71,11.71,0,0,0-5.26-.88L29,32.94c-4.17,0-8.94.16-11.58,3.39-1.89,2.31-2.1,5.53-2.22,8.53L15,49.15Z"/><path class="cls-1" d="M45.57,48.37c-1.89-4.48-1.88.79-1.55,1.82a9,9,0,0,0,.65,1.48C45.22,50.63,45.89,49.13,45.57,48.37Z"/><path class="cls-1" d="M32.32,44.41c-1.45-1.11-1.91,3.14-2,5.65a7.19,7.19,0,0,0,1.05-1.69A5.06,5.06,0,0,0,32.32,44.41Z"/><path class="cls-1" d="M76.91,55.14A12.86,12.86,0,0,1,72.54,54C68.05,58.33,60.36,60.22,55,56.87A8,8,0,0,1,53.92,56a10,10,0,0,1-5.39.93,7.64,7.64,0,0,1-3.68-1.68,12.21,12.21,0,0,1-4.06,2.62,9.89,9.89,0,0,1-12.58-4.48c-4.18,1.4-9.22.44-13.28-1.62Q14.48,62.6,14,73.39A3.2,3.2,0,0,0,15.1,76.3c3.29,3.28,26.91,3.92,35.71,3.79,19.81-.3,32.11-1.39,32.11-7.75.08-3-.88-10.62-1.18-17.75A12.94,12.94,0,0,1,76.91,55.14Z"/></g></g></svg>