<svg xmlns="http://www.w3.org/2000/svg" viewBox="0 0 159.5 190.05"><defs><style>.cls-1{fill:#2d3c58;}</style></defs><g id="Capa_2" data-name="Capa 2"><g id="Capa_1-2" data-name="Capa 1"><path class="cls-1" d="M24.39,137.39a11.89,11.89,0,0,1-1,4.8A12.83,12.83,0,0,1,20.86,146a15.74,15.74,0,0,1-3.7,2.8,24.9,24.9,0,0,1-4.44,1.89A28.94,28.94,0,0,1,8,151.71a31.57,31.57,0,0,1-4.67.31q-.77,0-1.5-.06a11.83,11.83,0,0,1-1.41-.17L0,123.5c1-.06,1.94-.11,2.86-.14s1.77,0,2.57,0c1.41,0,2.86.09,4.36.22a28.13,28.13,0,0,1,4.36.72,19.35,19.35,0,0,1,4,1.49,10.94,10.94,0,0,1,5.48,6.3A15.25,15.25,0,0,1,24.39,137.39Zm-3.58-.23a10.09,10.09,0,0,0-.58-3.35,9,9,0,0,0-1.52-2.66,9.91,9.91,0,0,0-2.27-2,14.26,14.26,0,0,0-2.82-1.4,17.14,17.14,0,0,0-3.19-.82,22.32,22.32,0,0,0-3.37-.29q-.72,0-1.53,0c-.54,0-1.1.06-1.67.12l.31,21.54a4.89,4.89,0,0,0,.66,0h.66a21,21,0,0,0,3.79-.3,19,19,0,0,0,3.6-1,15.56,15.56,0,0,0,3.18-1.61,12,12,0,0,0,2.52-2.21,9.81,9.81,0,0,0,1.67-2.8A8.59,8.59,0,0,0,20.81,137.16Z"/><path class="cls-1" d="M40.57,143.56l-8.8.32v4.64l12.8-.56,0,2.91L29,151.52l-.07-21.11,16.08,0-.14,2.82-13.06,0V141l8.8-.24Z"/><path class="cls-1" d="M66.52,147.72l-16.16.9.2-22.52,3.07-.12-.34,19.44,13.12-.85Z"/><path class="cls-1" d="M74.72,147l-3,0-.26-20.59,3.3.16Z"/><path class="cls-1" d="M100.48,143.94a11.73,11.73,0,0,1-1.77,1.95,11.47,11.47,0,0,1-2.18,1.48,11.72,11.72,0,0,1-2.48.93A11,11,0,0,1,85.69,147a11.19,11.19,0,0,1-4-4.16,11.27,11.27,0,0,1-1.09-2.76,11,11,0,0,1-.36-3.05,11.41,11.41,0,0,1,.44-3.05,11.55,11.55,0,0,1,1.16-2.72,11.28,11.28,0,0,1,1.77-2.3,11.83,11.83,0,0,1,2.29-1.76,11.07,11.07,0,0,1,2.7-1.12,10.92,10.92,0,0,1,3-.37,10.58,10.58,0,0,1,2.54.33,10.87,10.87,0,0,1,2.33.88,10.75,10.75,0,0,1,2.06,1.35,13,13,0,0,1,1.71,1.77L98,131.84a8.65,8.65,0,0,0-2.78-2.32,7.84,7.84,0,0,0-3.61-.89,7.75,7.75,0,0,0-3.22.63,8.76,8.76,0,0,0-2.65,1.8,8.42,8.42,0,0,0-1.8,2.68,8.62,8.62,0,0,0-.69,3.3,8.77,8.77,0,0,0,.6,3.32,8.44,8.44,0,0,0,4.34,4.6,7.68,7.68,0,0,0,3.2.71,7.77,7.77,0,0,0,2-.22,8,8,0,0,0,1.83-.69,8.29,8.29,0,0,0,2.91-2.53Z"/><path class="cls-1" d="M108.75,147.41l-3,0-.25-20.59,3.3.16Z"/><path class="cls-1" d="M133.5,149c-.3-1.09-.6-2.17-.92-3.24s-.64-2.15-1-3.24l-12.83.4c-.41,1-.8,2-1.17,3s-.74,2-1.09,3.05l-3.61-.54q2.33-6,5.13-11.79t6-11.48l4.46.14q2.67,5.56,4.86,11.34t4,11.85Zm-7.65-21.15c-1.1,2-2.14,4.06-3.12,6.11s-1.92,4.11-2.82,6.2l10.78-.33c-.7-2-1.45-4.06-2.25-6S126.77,129.85,125.85,127.86Z"/><path class="cls-1" d="M159.42,144.68a5.72,5.72,0,0,1-.65,2,5.62,5.62,0,0,1-1.19,1.49A7,7,0,0,1,156,149.2a10.46,10.46,0,0,1-1.82.68,11.73,11.73,0,0,1-1.93.37,14.92,14.92,0,0,1-1.86.09,11,11,0,0,1-2.42-.29,15.57,15.57,0,0,1-2.34-.76,17.88,17.88,0,0,1-2.26-1.16c-.75-.44-1.48-.93-2.21-1.46l2.36-2.71a12.6,12.6,0,0,0,2.44,1.76,15.56,15.56,0,0,0,2.18,1,11.76,11.76,0,0,0,2.16.54,7.43,7.43,0,0,0,2.14-.15,6.18,6.18,0,0,0,1.74-.67,4.3,4.3,0,0,0,1.2-1.07,2.9,2.9,0,0,0,.54-1.32,1.94,1.94,0,0,0-.19-1.08,2.83,2.83,0,0,0-.74-.9,5.68,5.68,0,0,0-1.15-.74,14,14,0,0,0-1.42-.57c-.51-.17-1-.32-1.56-.45s-1-.24-1.55-.33-1.24-.27-1.9-.45a11.94,11.94,0,0,1-2-.72,9.34,9.34,0,0,1-1.82-1.09,6.43,6.43,0,0,1-1.47-1.56,6.71,6.71,0,0,1-.93-2.1,8.09,8.09,0,0,1-.18-2.75,7.07,7.07,0,0,1,.57-2.29,7.17,7.17,0,0,1,1.15-1.83,7.54,7.54,0,0,1,1.61-1.37,10.44,10.44,0,0,1,1.93-.94,10.26,10.26,0,0,1,2.12-.52,12.33,12.33,0,0,1,2.18-.13,16.49,16.49,0,0,1,3,.5c.43.12.87.26,1.34.43a11.67,11.67,0,0,1,1.42.61,10.19,10.19,0,0,1,1.41.83,9.67,9.67,0,0,1,1.32,1.09l-1.82,2.8a6.83,6.83,0,0,0-1.07-1,8.69,8.69,0,0,0-1.14-.76,9.32,9.32,0,0,0-1.15-.56c-.38-.15-.74-.28-1.08-.38a10.8,10.8,0,0,0-2.4-.42,7.22,7.22,0,0,0-2.59.41,6,6,0,0,0-1.91,1.11,4.7,4.7,0,0,0-1.2,1.53,3.87,3.87,0,0,0-.43,1.67,3,3,0,0,0,.46,1.59,5.15,5.15,0,0,0,1.33,1.4,8.69,8.69,0,0,0,2,1.08,10.91,10.91,0,0,0,2.5.65,18.78,18.78,0,0,1,2.31.44,15.43,15.43,0,0,1,2.2.77,10.07,10.07,0,0,1,1.92,1.1,6.41,6.41,0,0,1,1.47,1.47,5.5,5.5,0,0,1,.86,1.85A5.57,5.57,0,0,1,159.42,144.68Z"/><path class="cls-1" d="M23.05,170.55a6.85,6.85,0,0,1-.55,2.7,7.54,7.54,0,0,1-1.43,2.12A8.94,8.94,0,0,1,19,176.94a13.54,13.54,0,0,1-2.5,1.07,16.1,16.1,0,0,1-2.67.59,17.06,17.06,0,0,1-2.63.17l-.84,0a6.08,6.08,0,0,1-.79-.1l-.22-15.91c.56,0,1.1-.06,1.61-.07s1,0,1.45,0c.79,0,1.61.06,2.45.13a15.09,15.09,0,0,1,2.45.4,10.43,10.43,0,0,1,2.25.84,6.08,6.08,0,0,1,3.08,3.54A8.48,8.48,0,0,1,23.05,170.55Zm-2-.13a5.58,5.58,0,0,0-.33-1.89,5.07,5.07,0,0,0-.85-1.49,5.77,5.77,0,0,0-1.28-1.13,7.86,7.86,0,0,0-1.59-.79,10,10,0,0,0-1.79-.46,13.39,13.39,0,0,0-1.89-.16c-.28,0-.56,0-.87,0l-.93.07.17,12.12a2.31,2.31,0,0,0,.37,0h.37a11.69,11.69,0,0,0,2.13-.16,11,11,0,0,0,2-.54,9.31,9.31,0,0,0,1.78-.91,6.33,6.33,0,0,0,1.42-1.24,5.38,5.38,0,0,0,.94-1.58A4.86,4.86,0,0,0,21,170.42Z"/><path class="cls-1" d="M35.53,171.16l-6.37.23v3.35l9.26-.4,0,2.11-11.32.46-.05-15.26,11.64,0-.11,2-9.45,0v5.59l6.36-.18Z"/><path class="cls-1" d="M17.48,182.44l15.8-.32-1,2.07-15.86.4Z"/><path class="cls-1" d="M70.47,190.05c-.4-1.48-.82-3-1.25-4.41s-.88-2.93-1.35-4.41l-17.47.54c-.56,1.38-1.09,2.75-1.6,4.12s-1,2.75-1.48,4.15l-4.92-.74q3.16-8.16,7-16.05t8.13-15.63l6.07.19q3.64,7.58,6.62,15.43t5.39,16.14ZM60.06,161.26q-2.25,4.13-4.25,8.31T52,178l14.68-.44q-1.42-4.19-3.06-8.22T60.06,161.26Z"/><path class="cls-1" d="M95.12,175.43l0-17.09,3.48.3-.09,21.47-3.36.23L81.34,163.45v16.87l-3.27.08V158l3.3-.11Z"/><path class="cls-1" d="M110.17,189.13l-3.14,0-.26-21.74,3.48.17Z"/><path class="cls-1" d="M133,161.43l-.1,3-7.3.19,0,19.73-3.45,0,.25-19.67-7.4.2,0-3.3Z"/><path class="cls-1" d="M151.59,186.63q-.43-1.6-.9-3.18c-.31-1-.64-2.11-1-3.18l-12.59.39q-.6,1.49-1.14,3c-.37,1-.73,2-1.08,3l-3.54-.53q2.28-5.88,5-11.57t5.86-11.26l4.37.14q2.63,5.46,4.77,11.12t3.88,11.63Zm-7.51-20.75c-1.07,2-2.1,4-3.06,6s-1.89,4-2.77,6.08l10.58-.31c-.69-2-1.42-4-2.21-5.93S145,167.83,144.08,165.88Z"/><path class="cls-1" d="M31.7,77.49c-1.55-16.16-.84-34.42,7.7-48.81C47.85,14.45,67.83,20.36,78.53,9c1.9-2,5.77-7.91.93-8.93-2.89-.62-5.58,1.78-6.33,4.36-1.56,5.34,3.54,8.38,8,9.58,8.06,2.19,16.4,2.28,24.15,5.75C125,28.66,127.56,57.11,125.7,75.84c-.11,1.08,2.65.56,2.74-.35,1.66-16.72.15-39.49-13-51.81-5.67-5.3-13.34-7.47-20.77-8.92-4.38-.86-9.15-1.08-13.32-2.7-2.54-1-5.11-2.37-5.66-5.3a6.07,6.07,0,0,1,.73-4c2.86.53,3.36,1.8,1.48,3.82C72.63,15.36,60,15.35,51.32,18.07,44.59,20.2,39.34,23.8,36,30.19c-7.7,14.74-8.6,31.8-7,48,.09.88,2.84.29,2.74-.73Z"/><path class="cls-1" d="M90.09,20.25l6.06,2a2.93,2.93,0,0,0,2.06-.35c.3-.16,1-.65.33-.87l-6.06-2a2.92,2.92,0,0,0-2.06.35c-.3.16-1,.65-.33.87Z"/><path class="cls-1" d="M43.45,67.57c-4.36,1-11.17,2.06-13.69,6.45-2.68,4.65,1.12,8.32,5.29,9.85,3.38,1.25,7.19,1.16,10.72,1.41,5,.34,10,.67,14.94.93,9.95.51,19.92.75,29.88.34a173.89,173.89,0,0,0,27.78-3.15c3.59-.74,8.88-1.93,9.86-6.24,1.75-7.72-13.88-9.57-18.7-9.68-1,0-2.91,1.52-1.07,1.56,4.25.09,16.46,1.39,17.15,7.15,1,8.66-32.37,8.8-38.21,8.94-11.76.28-23.51-.28-35.23-1-5.43-.35-14.5.62-18.74-3.6C26.91,74,38.7,70.13,43.82,69c1.66-.39,1.29-1.76-.37-1.38Z"/><path class="cls-1" d="M59.48,92.75q-3.43,5.91-5.59.6L53.3,92c-1.53-5.88,6.66-6.17,10.2-4.13,2.66,1.53,4.2,5.73,6,8.16,4.43,6,10.44,10.66,16.33,15.2l1.47-.94c-1.87.12-18,1.87-16.7-3.33.23-1,3.54-3.74,4.23-4.48l4.94-5.21c2.38-2.51,9.53-12.46,14-9a7.06,7.06,0,0,1,2.17,5c.2,4.87-8.74,6.53-6.18,1,.23-.51-1.88-.3-2.17.33-2.67,5.75,5.27,6.87,8.52,3.79C100.6,94.2,97.33,85.24,90.88,86c-3,.35-4.82,2.58-6.78,4.64q-6.72,7.06-13.41,14.16c-2.33,2.46-5,5.34-.19,6.73,4.63,1.34,11.15.13,15.88-.15.22,0,2-.51,1.48-.94a122.77,122.77,0,0,1-11-9.18c-3.56-3.47-6-7.41-8.84-11.41-3.23-4.53-8.77-5.65-13.85-3.25C48.59,89.18,51.17,97.11,56.73,98c3.55.54,7.53-2.58,4.8-6-.39-.49-2.49.25-2.05.8Z"/><path class="cls-1" d="M84.51,50.7a6.08,6.08,0,0,0,.32-3.36c-2.24-1.22-2.22,3.86-2,4.65a6,6,0,0,0,.42.93A4.93,4.93,0,0,0,84.51,50.7Z"/><path class="cls-1" d="M101.34,47.23c.17-2-.59-1.67-2.28,1.06l1.47,2.35a4,4,0,0,0,.3.28A5.84,5.84,0,0,0,101.34,47.23Z"/><path class="cls-1" d="M43.48,49.22c2.15,1.5,4.91,3.17,7.64,3.39A11.21,11.21,0,0,0,56,52a9.48,9.48,0,0,1,.14-5.59c2.25-7.05,10.4-5.15,6.5,1.9A10.82,10.82,0,0,1,59,52.25c2.28,5.3,8.91,6.1,12.64,1.55-3.23-3.71-4.28-9.4,1.62-10.06,3.73-.42,4,2.87,3.31,5.72a12.17,12.17,0,0,1-2,4.19,5.34,5.34,0,0,0,.56.41,13.09,13.09,0,0,0,5.6.21c-1.58-2.51-1.8-5.8.54-8.1,1.29-1.28,4.23-2.42,5.78-1,2.27,2.15,0,6.73-1.73,8.58a8.45,8.45,0,0,1-.81.77,8,8,0,0,0,2.68,1.72c3.29,1.3,9-.16,12-3.23a7.09,7.09,0,0,1-3.46-5.4c-.37-7.07,12.27-6.08,7.51,3.05a13.21,13.21,0,0,1-.92,1.46,9,9,0,0,0,7.6.72c0-2,0-3.91.07-5.65.32-4.77.33-10.72-3.92-12.9a11.71,11.71,0,0,0-5.26-.88l-43.56-.52c-4.17,0-8.94.16-11.58,3.39-1.89,2.31-2.1,5.53-2.22,8.53l-.18,4.29Z"/><path class="cls-1" d="M73.89,48.37c-1.89-4.48-1.88.79-1.55,1.82A9,9,0,0,0,73,51.67C73.54,50.63,74.21,49.13,73.89,48.37Z"/><path class="cls-1" d="M60.64,44.41c-1.45-1.11-1.91,3.14-2,5.65a7.19,7.19,0,0,0,1-1.69A5.06,5.06,0,0,0,60.64,44.41Z"/><path class="cls-1" d="M105.23,55.14A12.86,12.86,0,0,1,100.86,54c-4.49,4.37-12.18,6.26-17.53,2.91A8,8,0,0,1,82.24,56a10,10,0,0,1-5.39.93,7.64,7.64,0,0,1-3.68-1.68,12.21,12.21,0,0,1-4.06,2.62,9.9,9.9,0,0,1-12.59-4.48c-4.17,1.4-9.21.44-13.27-1.62q-.45,10.78-.89,21.58a3.2,3.2,0,0,0,1.06,2.91c3.29,3.28,26.91,3.92,35.71,3.79,19.81-.3,32.11-1.39,32.11-7.75.08-3-.88-10.62-1.18-17.75A12.94,12.94,0,0,1,105.23,55.14Z"/></g></g></svg>