<svg xmlns="http://www.w3.org/2000/svg" viewBox="0 0 326.99 112.12"><defs><style>.cls-1{fill:#e5d4cb;}</style></defs><g id="Capa_2" data-name="Capa 2"><g id="Capa_1-2" data-name="Capa 1"><path class="cls-1" d="M153.91,31.34a15.3,15.3,0,0,1-1.27,6.14,16.51,16.51,0,0,1-3.26,4.83,20.23,20.23,0,0,1-4.74,3.58A30.17,30.17,0,0,1,139,48.32a36.22,36.22,0,0,1-6.09,1.36,41.51,41.51,0,0,1-6,.39c-.65,0-1.29,0-1.92-.08a16.36,16.36,0,0,1-1.81-.21l-.48-36.24c1.27-.09,2.49-.14,3.66-.18s2.27,0,3.3,0c1.8,0,3.66.12,5.58.28a35.25,35.25,0,0,1,5.59.93,24,24,0,0,1,5.12,1.91,13.89,13.89,0,0,1,7,8.07A19.68,19.68,0,0,1,153.91,31.34ZM149.32,31a13.11,13.11,0,0,0-.75-4.29,11.37,11.37,0,0,0-1.94-3.4,13.28,13.28,0,0,0-2.91-2.57A17.86,17.86,0,0,0,140.11,19,22.49,22.49,0,0,0,136,17.93a29.61,29.61,0,0,0-4.31-.37c-.62,0-1.27,0-2,0s-1.4.09-2.13.16l.4,27.6q.41,0,.84.06h.84a27.31,27.31,0,0,0,4.86-.38,24.91,24.91,0,0,0,4.62-1.23,20.64,20.64,0,0,0,4.06-2.06,14.8,14.8,0,0,0,3.23-2.84,12.61,12.61,0,0,0,2.14-3.58A11.21,11.21,0,0,0,149.32,31Z"/><path class="cls-1" d="M174.63,39.24l-11.27.41v5.93l16.4-.71,0,3.73-20,.83-.09-27,20.61-.06L180.08,26,163.34,26v9.91l11.28-.31Z"/><path class="cls-1" d="M207.87,44.57l-20.69,1.15.25-28.85,3.93-.16-.43,24.91,16.8-1.1Z"/><path class="cls-1" d="M218.38,43.6l-3.81-.05-.32-26.37,4.22.2Z"/><path class="cls-1" d="M251.38,39.72a14.21,14.21,0,0,1-2.27,2.5,13.71,13.71,0,0,1-2.79,1.89,13.88,13.88,0,0,1-6.67,1.59,13.93,13.93,0,0,1-7.22-2.1,14.57,14.57,0,0,1-2.87-2.33,14.13,14.13,0,0,1-2.2-3,15.1,15.1,0,0,1-1.3-11.34,15.29,15.29,0,0,1,1.49-3.49,14.39,14.39,0,0,1,8.66-6.64,13.89,13.89,0,0,1,3.82-.47,14,14,0,0,1,6.24,1.54,14.34,14.34,0,0,1,2.64,1.74,15.66,15.66,0,0,1,2.19,2.27l-2.94,2.34a11,11,0,0,0-3.55-3A10,10,0,0,0,240,20.11a9.89,9.89,0,0,0-4.13.81,10.93,10.93,0,0,0-5.7,5.73,11.27,11.27,0,0,0-.1,8.49A10.83,10.83,0,0,0,235.6,41a10.31,10.31,0,0,0,6.67.62,10.37,10.37,0,0,0,2.33-.88,10.48,10.48,0,0,0,2.05-1.4,10.8,10.8,0,0,0,1.68-1.83Z"/><path class="cls-1" d="M262,44.16l-3.81,0-.32-26.37,4.22.2Z"/><path class="cls-1" d="M293.68,46.22c-.38-1.4-.77-2.78-1.17-4.15s-.83-2.76-1.27-4.15l-16.44.5c-.52,1.3-1,2.59-1.5,3.88s-.95,2.59-1.4,3.9l-4.62-.69q3-7.68,6.57-15.1t7.65-14.7l5.71.17q3.42,7.12,6.23,14.52t5.07,15.19Zm-9.79-27.09c-1.41,2.59-2.75,5.2-4,7.81s-2.47,5.27-3.62,8l13.81-.42q-1.35-3.93-2.88-7.73C286.17,24.21,285.06,21.67,283.89,19.13Z"/><path class="cls-1" d="M326.89,40.66a7.6,7.6,0,0,1-.84,2.54,7.27,7.27,0,0,1-1.52,1.9,9.12,9.12,0,0,1-2,1.36,13.68,13.68,0,0,1-2.34.87,14.83,14.83,0,0,1-2.46.47,20,20,0,0,1-2.39.13,14.69,14.69,0,0,1-3.1-.38,19.11,19.11,0,0,1-3-1,22.66,22.66,0,0,1-2.9-1.48c-.95-.57-1.89-1.19-2.82-1.87l3-3.47A15.56,15.56,0,0,0,309.64,42a18.86,18.86,0,0,0,2.79,1.25,13.92,13.92,0,0,0,2.76.69,9.05,9.05,0,0,0,2.74-.19,7.57,7.57,0,0,0,2.23-.86,5.11,5.11,0,0,0,1.54-1.36,3.68,3.68,0,0,0,.69-1.7,2.39,2.39,0,0,0-.25-1.38,3.73,3.73,0,0,0-.94-1.16,6.92,6.92,0,0,0-1.48-.93,15,15,0,0,0-1.82-.74c-.64-.22-1.3-.41-2-.58s-1.35-.3-2-.42c-.78-.15-1.59-.34-2.45-.57a18.62,18.62,0,0,1-2.52-.92,12.86,12.86,0,0,1-2.33-1.4,8.74,8.74,0,0,1-1.88-2,8.52,8.52,0,0,1-1.19-2.7,10.64,10.64,0,0,1-.23-3.51,9,9,0,0,1,2.2-5.28,9.2,9.2,0,0,1,2.07-1.76,12.26,12.26,0,0,1,2.47-1.2,13.19,13.19,0,0,1,2.72-.67,17.35,17.35,0,0,1,2.78-.16,20.63,20.63,0,0,1,3.85.64c.55.15,1.12.33,1.72.54a18.79,18.79,0,0,1,1.82.78,14,14,0,0,1,1.8,1.07,12.39,12.39,0,0,1,1.7,1.4l-2.33,3.58a9.35,9.35,0,0,0-1.38-1.3,11.64,11.64,0,0,0-1.46-1,12.28,12.28,0,0,0-1.47-.71c-.49-.2-.95-.36-1.38-.49a13.63,13.63,0,0,0-3.08-.53,9,9,0,0,0-3.31.52,7.65,7.65,0,0,0-2.46,1.42,6.22,6.22,0,0,0-1.54,2,5,5,0,0,0-.55,2.14,3.77,3.77,0,0,0,.6,2,6.53,6.53,0,0,0,1.7,1.8,11.24,11.24,0,0,0,2.58,1.39,14.34,14.34,0,0,0,3.19.83,21.76,21.76,0,0,1,3,.57,18,18,0,0,1,2.82,1,12.89,12.89,0,0,1,2.46,1.41,8.38,8.38,0,0,1,1.88,1.88,7.12,7.12,0,0,1,1.11,2.38A7.21,7.21,0,0,1,326.89,40.66Z"/><path class="cls-1" d="M152.19,73.81a8.72,8.72,0,0,1-.71,3.46A9.52,9.52,0,0,1,149.65,80,11.44,11.44,0,0,1,147,82a17.1,17.1,0,0,1-3.2,1.36,21.25,21.25,0,0,1-3.43.77,23.1,23.1,0,0,1-3.36.22c-.37,0-.73,0-1.09,0a8,8,0,0,1-1-.12l-.27-20.38c.71,0,1.4-.08,2.06-.1s1.27,0,1.85,0c1,0,2.06.07,3.14.16a18.88,18.88,0,0,1,3.14.52,13.77,13.77,0,0,1,2.88,1.07A7.84,7.84,0,0,1,151.64,70,10.89,10.89,0,0,1,152.19,73.81Zm-2.58-.17a7.14,7.14,0,0,0-.42-2.42,6.3,6.3,0,0,0-1.09-1.91,7.07,7.07,0,0,0-1.64-1.44,9.86,9.86,0,0,0-2-1,13.14,13.14,0,0,0-2.3-.59,16.36,16.36,0,0,0-2.42-.21c-.35,0-.72,0-1.11,0l-1.2.09.22,15.52a3.87,3.87,0,0,0,.48,0h.47a15.62,15.62,0,0,0,2.73-.21,13.62,13.62,0,0,0,2.6-.7,11.42,11.42,0,0,0,2.29-1.15,8.75,8.75,0,0,0,1.81-1.6,6.63,6.63,0,0,0,1.2-2A6.22,6.22,0,0,0,149.61,73.64Z"/><path class="cls-1" d="M168.17,74.59l-8.15.3v4.29l11.86-.52,0,2.71L157.4,82l-.06-19.56,14.9,0L172.11,65,160,65v7.16l8.15-.22Z"/><path class="cls-1" d="M145.06,89l20.23-.4-1.23,2.65-20.32.51Z"/><path class="cls-1" d="M212.93,98.79c-.51-1.89-1-3.78-1.59-5.64s-1.13-3.76-1.73-5.66l-22.39.69q-1.07,2.66-2,5.28c-.65,1.75-1.29,3.52-1.9,5.31l-6.3-.94q4.05-10.45,9-20.56t10.42-20l7.78.24q4.65,9.7,8.47,19.77t6.91,20.67ZM199.6,61.9q-2.88,5.31-5.45,10.65t-4.92,10.82L208,82.8q-1.83-5.35-3.93-10.53T199.6,61.9Z"/><path class="cls-1" d="M244.51,80.06l0-21.89,4.46.38-.11,27.51-4.31.29L226.86,64.71l0,21.61-4.18.11V57.79l4.22-.15Z"/><path class="cls-1" d="M263.8,97.61l-4,0-.35-27.84,4.47.21Z"/><path class="cls-1" d="M293,62.12,292.88,66l-9.36.24,0,25.27-4.42,0,.32-25.2-9.47.26,0-4.22Z"/><path class="cls-1" d="M316.85,94.41c-.37-1.37-.75-2.72-1.15-4.07s-.81-2.7-1.25-4.07l-16.13.49c-.51,1.28-1,2.54-1.47,3.81s-.92,2.54-1.37,3.82l-4.54-.67q2.93-7.55,6.46-14.82t7.5-14.43l5.61.18q3.35,7,6.1,14.24t5,14.9Zm-9.61-26.58q-2.07,3.81-3.92,7.67c-1.24,2.57-2.42,5.16-3.55,7.79l13.55-.4Q312,79,310.49,75.3T307.24,67.83Z"/><path class="cls-1" d="M3.38,77.49c-1.55-16.16-.84-34.42,7.7-48.81C19.53,14.45,39.51,20.36,50.21,9,52.11,7,56,1.12,51.14.1c-2.89-.62-5.58,1.78-6.33,4.36C43.25,9.8,48.35,12.84,52.76,14c8.06,2.19,16.4,2.28,24.15,5.75C96.7,28.66,99.24,57.11,97.38,75.84c-.11,1.08,2.65.56,2.74-.35,1.66-16.72.15-39.49-13-51.81-5.67-5.3-13.34-7.47-20.77-8.92C62,13.9,57.19,13.68,53,12.06c-2.53-1-5.11-2.37-5.66-5.3a6.07,6.07,0,0,1,.73-4c2.86.53,3.36,1.8,1.48,3.82C44.31,15.36,31.67,15.35,23,18.07,16.27,20.2,11,23.8,7.68,30.19,0,44.93-.92,62,.64,78.22c.09.88,2.84.29,2.74-.73Z"/><path class="cls-1" d="M61.77,20.25l6.06,2a2.92,2.92,0,0,0,2.06-.35c.3-.16,1-.65.33-.87l-6.06-2a2.92,2.92,0,0,0-2.06.35c-.3.16-1,.65-.33.87Z"/><path class="cls-1" d="M15.13,67.57C10.77,68.58,4,69.63,1.44,74c-2.68,4.65,1.12,8.32,5.29,9.85,3.38,1.25,7.19,1.16,10.72,1.41,5,.34,10,.67,14.94.93,10,.51,19.92.75,29.88.34A173.89,173.89,0,0,0,90.05,83.4c3.59-.74,8.88-1.93,9.86-6.24,1.75-7.72-13.88-9.57-18.7-9.68-1,0-2.91,1.52-1.07,1.56,4.25.09,16.46,1.39,17.15,7.15,1,8.66-32.37,8.8-38.21,8.94-11.76.28-23.51-.28-35.23-1-5.43-.35-14.5.62-18.74-3.6C-1.41,74,10.38,70.13,15.5,69c1.66-.39,1.29-1.76-.37-1.38Z"/><path class="cls-1" d="M31.17,92.75q-3.45,5.91-5.6.6L25,92c-1.53-5.88,6.67-6.17,10.2-4.13,2.66,1.53,4.2,5.73,6,8.16,4.43,6,10.44,10.66,16.33,15.2l1.47-.94c-1.87.12-18,1.87-16.7-3.33.23-1,3.54-3.74,4.23-4.48l4.95-5.21c2.37-2.51,9.52-12.46,14-9a7.06,7.06,0,0,1,2.17,5c.2,4.87-8.74,6.53-6.18,1,.23-.51-1.88-.3-2.17.33-2.67,5.75,5.27,6.87,8.52,3.79C72.28,94.2,69,85.24,62.56,86c-3,.35-4.82,2.58-6.78,4.64q-6.72,7.06-13.41,14.16c-2.33,2.46-5,5.34-.19,6.73,4.63,1.34,11.15.13,15.89-.15.21,0,2-.51,1.47-.94a122.77,122.77,0,0,1-11-9.18c-3.56-3.47-6-7.41-8.84-11.41-3.23-4.53-8.77-5.65-13.84-3.25-5.54,2.61-3,10.54,2.6,11.39,3.55.54,7.53-2.58,4.8-6-.39-.49-2.49.25-2,.8Z"/><path class="cls-1" d="M56.2,50.7a6.17,6.17,0,0,0,.31-3.36c-2.24-1.22-2.22,3.86-1.95,4.65a6,6,0,0,0,.42.93A5,5,0,0,0,56.2,50.7Z"/><path class="cls-1" d="M73,47.23c.17-2-.59-1.67-2.27,1.06l1.46,2.35.3.28A5.84,5.84,0,0,0,73,47.23Z"/><path class="cls-1" d="M15.16,49.22c2.15,1.5,4.91,3.17,7.64,3.39a11.21,11.21,0,0,0,4.85-.6,9.48,9.48,0,0,1,.14-5.59c2.25-7.05,10.4-5.15,6.5,1.9a10.82,10.82,0,0,1-3.63,3.93c2.28,5.3,8.91,6.1,12.64,1.55-3.23-3.71-4.28-9.4,1.62-10.06,3.73-.42,4,2.87,3.31,5.72a12.17,12.17,0,0,1-1.95,4.19,5.34,5.34,0,0,0,.56.41,13.09,13.09,0,0,0,5.6.21c-1.58-2.51-1.8-5.8.54-8.1,1.29-1.28,4.23-2.42,5.78-1C61,47.37,58.75,52,57,53.8a8.45,8.45,0,0,1-.81.77,8,8,0,0,0,2.68,1.72c3.29,1.3,8.95-.16,12.05-3.23a7.09,7.09,0,0,1-3.46-5.4c-.37-7.07,12.27-6.08,7.51,3.05a11.88,11.88,0,0,1-.92,1.46,9,9,0,0,0,7.6.72c-.05-2,0-3.91.07-5.65.32-4.77.33-10.72-3.92-12.9a11.71,11.71,0,0,0-5.26-.88L29,32.94c-4.17,0-8.94.16-11.58,3.39-1.89,2.31-2.1,5.53-2.22,8.53L15,49.15Z"/><path class="cls-1" d="M45.57,48.37c-1.89-4.48-1.88.79-1.55,1.82a9,9,0,0,0,.65,1.48C45.22,50.63,45.89,49.13,45.57,48.37Z"/><path class="cls-1" d="M32.32,44.41c-1.45-1.11-1.91,3.14-2,5.65a7.19,7.19,0,0,0,1.05-1.69A5.06,5.06,0,0,0,32.32,44.41Z"/><path class="cls-1" d="M76.91,55.14A12.86,12.86,0,0,1,72.54,54C68.05,58.33,60.36,60.22,55,56.87A8,8,0,0,1,53.92,56a10,10,0,0,1-5.39.93,7.64,7.64,0,0,1-3.68-1.68,12.21,12.21,0,0,1-4.06,2.62,9.89,9.89,0,0,1-12.58-4.48c-4.18,1.4-9.22.44-13.28-1.62Q14.48,62.6,14,73.39A3.2,3.2,0,0,0,15.1,76.3c3.29,3.28,26.91,3.92,35.71,3.79,19.81-.3,32.11-1.39,32.11-7.75.08-3-.88-10.62-1.18-17.75A12.94,12.94,0,0,1,76.91,55.14Z"/></g></g></svg>